<?xml version="1.0" encoding="UTF-8"?>
<svg xmlns="http://www.w3.org/2000/svg" width="1024" height="1024" viewBox="0 0 1024 1024" role="img" aria-labelledby="title desc">
  <title id="title">DEV folder cube icon</title>
  <desc id="desc">A flat blue DEV app icon with a dark folder and a blue cube inside.</desc>
  <rect x="14" y="14" width="996" height="996" rx="108" ry="108" fill="#006EFF"/>
  <path fill="#001C4A" d="
    M160 183
    C134 183 114 203 114 229
    L114 740
    C114 766 134 786 160 786
    L864 786
    C890 786 910 766 910 740
    L910 276
    C910 250 890 230 864 230
    L486 230
    L438 183
    Z"/>
  <g id="cube">
    <path fill="#74BEFF" d="M512 328 L367 431 L512 518 L657 431 Z"/>
    <path fill="#3EA7FF" d="M356 444 L503 532 L503 707 L356 616 Z"/>
    <path fill="#006CFF" d="M521 532 L668 444 L668 616 L521 707 Z"/>
  </g>
  <path id="dev-text" fill="#FFFFFF" d="M374.56 854.54 L374.56 921.94 L384.76 921.94 Q402.21 921.94 411.41 913.27 Q420.65 904.61 420.65 888.11 Q420.65 871.7 411.46 863.13 Q402.3 854.54 384.76 854.54 L374.56 854.54 Z M346.08 833 L376.1 833 Q401.26 833 413.57 836.6 Q425.88 840.17 434.68 848.77 Q442.45 856.25 446.21 866.02 Q450 875.78 450 888.11 Q450 900.63 446.21 910.43 Q442.45 920.23 434.68 927.69 Q425.81 936.28 413.38 939.88 Q400.95 943.45 376.1 943.45 L346.08 943.45 L346.08 833 Z M471.84 833 L548.68 833 L548.68 854.54 L500.31 854.54 L500.31 875.09 L545.81 875.09 L545.81 896.63 L500.31 896.63 L500.31 921.94 L550.31 921.94 L550.31 943.45 L471.84 943.45 L471.84 833 Z M562.14 833 L590.78 833 L620.07 914.53 L649.3 833 L677.92 833 L637.02 943.45 L603.05 943.45 L562.14 833 Z"/>
</svg>
